# AST/ASF file generated using VICON BodyLanguage
# -----------------------------------------------
:version 1.10
:name VICON
:units
  mass 1.0
  length 0.45
  angle deg
:documentation
   .ast/.asf automatically generated from VICON data using
   VICON BodyBuilder and BodyLanguage model FoxedUp or BRILLIANT.MOD
:root
   order TX TY TZ RX RY RZ
   axis XYZ
   position 0 0 0  
   orientation 0 0 0 
:bonedata
  begin
     id 1 
     name lhipjoint
     direction 0.567149 -0.783011 0.255413 
     length 2.28399 
     axis 0 0 0  XYZ
  end
  begin
     id 2 
     name lfemur
     direction 0.34202 -0.939693 0  
     length 7.34031  
     axis 0 0 20  XYZ
    dof rx ry rz
    limits (-160.0 20.0)
           (-70.0 70.0)
           (-60.0 70.0)
  end
  begin
     id 3 
     name ltibia
     direction 0.34202 -0.939693 0   
     length 6.9833   
     axis 0 0 20   XYZ
    dof rx
    limits (-10.0 170.0)
  end
  begin
     id 4 
     name lfoot
     direction 0.136498 -0.375025 0.91691   
     length 2.33665   
     axis -90 7.62852e-016 20   XYZ
    dof rx rz
    limits (-45.0 90.0)
           (-70.0 20.0)
  end
  begin
     id 5 
     name ltoes
     direction 1.5367e-011 -4.21617e-011 1   
     length 1.15039   
     axis -90 7.62852e-016 20   XYZ
    dof rx
    limits (-90.0 20.0)
  end
  begin
     id 6 
     name rhipjoint
     direction -0.602854 -0.758518 0.247423   
     length 2.35775  
     axis 0 0 0  XYZ 
  end
  begin
     id 7 
     name rfemur
     direction -0.34202 -0.939693 0   
     length 7.43932   
     axis 0 0 -20   XYZ
    dof rx ry rz
    limits (-160.0 20.0)
           (-70.0 70.0)
           (-70.0 60.0)
  end
  begin
     id 8 
     name rtibia
     direction -0.34202 -0.939693 0   
     length 7.11893   
     axis 0 0 -20   XYZ
    dof rx
    limits (-10.0 170.0)
 end
 begin
     id 9 
     name rfoot
     direction -0.131771 -0.362037 0.922803   
     length 2.53019  
     axis -90 -7.62852e-016 -20   XYZ
    dof rx rz
    limits (-45.0 90.0)
           (-20.0 70.0)
  end
  begin
     id 10 
     name rtoes
     direction -1.53733e-011 -4.21932e-011 1   
     length 1.24596   
     axis -90 -7.62852e-016 -20   XYZ
    dof rx
    limits (-90.0 20.0)
  end
  begin
     id 11 
     name lowerback
     direction 0.0235427 0.999023 -0.0374125   
     length 2.21768   
     axis 0 0 0   XYZ
    dof rx ry rz
    limits (-20.0 45.0)
           (-30.0 30.0)
           (-30.0 30.0)
  end
  begin
     id 12 
     name upperback
     direction 0.0302156 0.996818 -0.073759   
     length 2.20352   
     axis 0 0 0   XYZ
    dof rx ry rz
    limits (-20.0 45.0)
           (-30.0 30.0)
           (-30.0 30.0)
  end
  begin
     id 13 
     name thorax
     direction 0.0187169 0.998235 -0.0563532   
     length 2.22103   
     axis 0 0 0   XYZ
    dof rx ry rz
    limits (-20.0 45.0)
           (-30.0 30.0)
           (-30.0 30.0)
  end
  begin
     id 14 
     name lowerneck
     direction -0.119528 0.987423 0.103481   
     length 1.72948   
     axis 0 0 0   XYZ
    dof rx ry rz
    limits (-20.0 45.0)
           (-30.0 30.0)
           (-30.0 30.0)
  end
  begin
     id 15 
     name upperneck
     direction 0.248049 0.963095 -0.104496   
     length 1.74979   
     axis 0 0 0   XYZ
    dof rx ry rz
    limits (-20.0 45.0)
           (-30.0 30.0)
           (-30.0 30.0)
  end
  begin
     id 16
     name head
     direction 0.0903589 0.994284 -0.056876  
     length 1.78268  
     axis 0 0 0   XYZ
    dof rx ry rz
    limits (-20.0 45.0)
           (-30.0 30.0)
           (-30.0 30.0)
  end
  begin
     id 17 
     name lclavicle
     direction 0.946008 0.242039 -0.215608  
     length 3.80783  
     axis 0 0 0   XYZ
    dof ry rz
    limits (-20.0 10.0)
           (0.0 20.0)
  end
  begin
     id 18 
     name lhumerus
     direction 1 -4.48991e-011 -2.25695e-027   
     length 4.83125   
     axis 180 -30 -90   XYZ
    dof rx ry rz
    limits (-60.0 90.0)
           (-90.0 90.0)
           (-90.0 90.0)
  end
  begin
     id 19
     name lradius
     direction 0.999991 0.00366712 -0.00211721   
     length 3.00391   
     axis 180 -30 -90   XYZ
    dof rx
    limits (-10.0 170.0)
  end
  begin
     id 20
     name lwrist
     direction 0.999991 0.00393016 -0.00141978   
     length 1.50195   
     axis -1.00488e-014 90 90   XYZ
    dof ry
    limits (-180.0 0.0)
 end
  begin
     id 21 
     name lhand
     direction 1 -4.49123e-011 2.72098e-026   
     length 1.2717   
     axis -1.73687e-014 90 90   XYZ
    dof rx rz
    limits (-90.0 90.0)
           (-45.0 45.0)
  end
  begin
     id 22 
     name lfingers
     direction 1 -4.48678e-011 5.4479e-026   
     length 1.02528   
     axis -3.47372e-014 90 90   XYZ
    dof rx
    limits (0.0 90.0)
  end
  begin
     id 23
     name lthumb
     direction 0.707107 -6.34851e-011 0.707107   
     length 1.4721   
     axis -90 45 -1.62303e-014   XYZ
    dof rx rz
    limits (-45.0 45.0)
           (-45.0 45.0)
  end
  begin
     id 24 
     name rclavicle
     direction -0.981723 0.189447 -0.0181673   
     length 3.74989  
     axis 0 0 0   XYZ 
    dof ry rz
    limits (-10.0 20.0)
           (-20.0 0.0)
  end
  begin
     id 25 
     name rhumerus
     direction -1 -4.48985e-011 2.38206e-027  
     length 4.61118   
     axis 180 30 90   XYZ
    dof rx ry rz
    limits (-90.0 60.0)
           (-90.0 90.0)
           (-90.0 90.0)
  end
  begin
     id 26 
     name rradius
     direction -1 -4.48977e-011 7.41019e-027   
     length 2.91491   
     axis 180 30 90   XYZ
    dof rx
    limits (-10.0 170.0)
  end
  begin
     id 27 
     name rwrist
     direction -1 -4.48549e-011 1.3624e-026   
     length 1.45745   
     axis -1.00488e-014 -90 -90   XYZ
    dof ry
    limits (-180.0 0.0)
  end
  begin
     id 28
     name rhand
     direction -1 -4.49107e-011 2.72109e-026   
     length 1.30769   
     axis -1.73687e-014 -90 -90   XYZ
    dof rx rz
    limits (-90.0 90.0)
           (-45.0 45.0)
  end
  begin
     id 29
     name rfingers
     direction -1 -4.48919e-011 5.44468e-026   
     length 1.05429   
     axis -3.47372e-014 -90 -90   XYZ
    dof rx
    limits (0.0 90.0)
  end
  begin
     id 30
     name rthumb
     direction -0.707107 -6.35315e-011 0.707107   
     length 1.51376   
     axis -90 -45 1.62303e-014   XYZ
    dof rx rz
    limits (-45.0 45.0)
           (-45.0 45.0)
  end
:hierarchy
  begin
    root lhipjoint rhipjoint lowerback
    lhipjoint lfemur
    lfemur ltibia
    ltibia lfoot
    lfoot ltoes
    rhipjoint rfemur
    rfemur rtibia
    rtibia rfoot
    rfoot rtoes
    lowerback upperback
    upperback thorax
    thorax lowerneck lclavicle rclavicle
    lowerneck upperneck
    upperneck head
    lclavicle lhumerus
    lhumerus lradius
    lradius lwrist
    lwrist lhand lthumb
    lhand lfingers
    rclavicle rhumerus
    rhumerus rradius
    rradius rwrist
    rwrist rhand rthumb
    rhand rfingers
  end

#!OML:ASF X:\für Bonn\!DataBase\2005_08_11_Bastian_Final\c3d\Bastian.ASF
:FULLY-SPECIFIED
:DEGREES
16
root -0.311716 17.2958 5.60979 176.938 -11.6329 -179.882
lowerback 8.7974 -2.93219 -2.21819
upperback 4.16037 -4.40971 -0.58031
thorax -0.494722 -2.36651 1.03778
lowerneck -9.72094 -6.51938 -2.24104
upperneck -3.09564 -9.14229 9.89818
head 1.31534 -4.65264 3.17766
rclavicle -2.93207e-015 2.54444e-014
rhumerus 71.8157 21.4685 5.51393
rradius 39.4911
rwrist -56.1134
rhand -44.5302 -9.118
rfingers 7.12502
rthumb -17.3316 -38.3652
lclavicle -2.93207e-015 2.54444e-014
lhumerus 69.0805 -22.4857 -0.96831
lradius 31.8725
lwrist 2.37408
lhand -42.7022 13.305
lfingers 7.12502
lthumb -15.5716 42.6981
rfemur -7.29635 0.538377 24.5212
rtibia 41.0497
rfoot -25.2137 -18.6524
rtoes 1.54288
lfemur -5.17359 3.48425 -19.3783
ltibia 31.049
lfoot -14.3184 -12.9485
ltoes -8.60709
17
root -0.310515 17.286 5.61447 176.707 -11.6856 -179.985
lowerback 9.07141 -2.91954 -2.31575
upperback 4.24476 -4.42357 -0.626025
thorax -0.55359 -2.38098 1.06053
lowerneck -9.59205 -6.52899 -2.25497
upperneck -3.22519 -9.14872 9.92999
head 1.25342 -4.66415 3.19668
rclavicle 6.37105e-014 -2.62396e-014
rhumerus 71.6077 21.5673 4.83587
rradius 39.3215
rwrist -55.3247
rhand -44.4123 -9.11999
rfingers 7.12502
rthumb -17.2181 -38.3772
lclavicle 6.37105e-014 -2.62396e-014
lhumerus 68.948 -22.5863 -0.914891
lradius 32.0193
lwrist 2.0715
lhand -42.7736 13.2757
lfingers 7.12502
lthumb -15.6403 42.6635
rfemur -7.21932 -0.256104 24.2262
rtibia 41.2725
rfoot -25.1553 -18.009
rtoes 1.35795
lfemur -5.00676 3.01866 -19.5678
ltibia 31.2253
lfoot -14.4522 -12.5013
ltoes -8.75921
18
root -0.309022 17.2748 5.61937 176.473 -11.7333 -180.068
lowerback 9.35574 -2.90642 -2.40392
upperback 4.34105 -4.43829 -0.658013
thorax -0.605118 -2.39683 1.09246
lowerneck -9.503 -6.53665 -2.31476
upperneck -3.34443 -9.15157 10.0049
head 1.20697 -4.67247 3.23752
rclavicle -3.10601e-014 2.34566e-014
rhumerus 71.3814 21.6412 4.0284
rradius 39.1378
rwrist -54.5606
rhand -44.3411 -9.03119
rfingers 7.12502
rthumb -17.1495 -38.2944
lclavicle -3.10601e-014 2.34566e-014
lhumerus 68.809 -22.6066 -0.789097
lradius 32.0911
lwrist 1.60014
lhand -42.7683 13.1818
lfingers 7.12502
lthumb -15.6352 42.57
rfemur -7.15307 -1.06657 23.9451
rtibia 41.5202
rfoot -25.119 -17.3276
rtoes 1.19722
lfemur -4.89085 2.6705 -19.7183
ltibia 31.4768
lfoot -14.6343 -12.1431
ltoes -9.0076
19
root -0.307305 17.262 5.62419 176.23 -11.7645 -180.15
lowerback 9.67314 -2.88384 -2.47705
upperback 4.42739 -4.44121 -0.699068
thorax -0.687095 -2.40609 1.10834
lowerneck -9.40071 -6.54612 -2.37064
upperneck -3.45852 -9.15592 10.0683
head 1.15908 -4.68132 3.27408
rclavicle -6.26172e-015 3.89618e-014
rhumerus 71.1611 21.7137 3.35314
rradius 39.0282
rwrist -54.0958
rhand -44.3315 -8.81245
rfingers 7.12502
rthumb -17.1403 -38.0764
lclavicle -6.26172e-015 3.89618e-014
lhumerus 68.7073 -22.5971 -0.599515
lradius 32.0682
lwrist 0.962542
lhand -42.7245 13.052
lfingers 7.12502
lthumb -15.5931 42.4435
rfemur -7.08505 -1.83269 23.6673
rtibia 41.7938
rfoot -25.1039 -16.6904
rtoes 0.944307
lfemur -4.81301 2.47944 -19.837
ltibia 31.8193
lfoot -14.8413 -11.9691
ltoes -9.15754
20
root -0.305638 17.2471 5.62847 175.978 -11.8114 -180.23
lowerback 10.0147 -2.86652 -2.55238
upperback 4.51052 -4.45321 -0.737325
thorax -0.784583 -2.41989 1.13093
lowerneck -9.35178 -6.56612 -2.4171
upperneck -3.51742 -9.17784 10.1234
head 1.13872 -4.69551 3.30257
rclavicle -2.90723e-014 -3.57812e-015
rhumerus 70.9746 21.7888 2.77644
rradius 38.9581
rwrist -53.8917
rhand -44.3925 -8.50477
rfingers 7.12502
rthumb -17.199 -37.7636
lclavicle -2.90723e-014 -3.57812e-015
lhumerus 68.6182 -22.5541 -0.470082
lradius 32.0597
lwrist 0.389715
lhand -42.6137 12.8961
lfingers 7.12502
lthumb -15.4863 42.2959
rfemur -7.01789 -2.59687 23.3883
rtibia 42.1002
rfoot -25.1221 -16.0643
rtoes 0.771075
lfemur -4.77907 2.32556 -19.9425
ltibia 32.2573
lfoot -15.0639 -11.8561
ltoes -9.03937
21
root -0.303837 17.2306 5.63385 175.73 -11.8643 -180.265
lowerback 10.3642 -2.85745 -2.57577
upperback 4.59694 -4.47261 -0.769371
thorax -0.885788 -2.437 1.13233
lowerneck -9.31171 -6.58059 -2.48429
upperneck -3.59349 -9.19165 10.2002
head 1.11627 -4.70644 3.34272
rclavicle 3.44394e-014 -1.11319e-014
rhumerus 70.8017 21.8357 2.26408
rradius 38.9652
rwrist -53.9353
rhand -44.5167 -8.16264
rfingers 7.12502
rthumb -17.3185 -37.411
lclavicle 3.44394e-014 -1.11319e-014
lhumerus 68.5265 -22.448 -0.34691
lradius 32.0667
lwrist -0.113824
lhand -42.4474 12.7276
lfingers 7.12502
lthumb -15.3261 42.1396
rfemur -6.98551 -3.31155 23.162
rtibia 42.4448
rfoot -25.1958 -15.4446
rtoes 0.671263
lfemur -4.82741 2.30053 -19.9744
ltibia 32.8023
lfoot -15.3071 -11.8778
ltoes -8.97937
22
root -0.302035 17.2104 5.63849 175.472 -11.9212 -180.302
lowerback 10.7428 -2.84614 -2.60355
upperback 4.67166 -4.49048 -0.796852
thorax -1.01402 -2.45278 1.14328
lowerneck -9.35525 -6.60065 -2.52906
upperneck -3.57115 -9.2172 10.2381
head 1.13776 -4.71691 3.36052
rclavicle -6.20705e-014 -1.59028e-015
rhumerus 70.6304 21.8975 1.81509
rradius 39.0186
rwrist -54.0988
rhand -44.6484 -7.82663
rfingers 7.12502
rthumb -17.4453 -37.0638
lclavicle -6.20705e-014 -1.59028e-015
lhumerus 68.5154 -22.3663 -0.415343
lradius 32.1192
lwrist -0.275562
lhand -42.3385 12.6079
lfingers 7.12502
lthumb -15.2213 42.028
rfemur -6.95545 -4.05592 22.9265
rtibia 42.8397
rfoot -25.2828 -14.8534
rtoes 0.372864
lfemur -4.92096 2.33414 -19.9973
ltibia 33.4615
lfoot -15.5901 -11.9636
ltoes -8.85209
23
root -0.300256 17.1867 5.64353 175.226 -11.9613 -180.34
lowerback 11.1135 -2.82654 -2.61716
upperback 4.74709 -4.49651 -0.831655
thorax -1.13895 -2.46259 1.13709
lowerneck -9.37613 -6.63015 -2.60123
upperneck -3.5871 -9.25332 10.3136
head 1.14741 -4.73485 3.3969
rclavicle -6.44559e-014 9.54166e-015
rhumerus 70.4528 21.9398 1.43125
rradius 39.1193
rwrist -54.4003
rhand -44.8074 -7.492
rfingers 7.12502
rthumb -17.5984 -36.7155
lclavicle -6.44559e-014 9.54166e-015
lhumerus 68.5185 -22.2642 -0.496001
lradius 32.2084
lwrist -0.227462
lhand -42.2261 12.5061
lfingers 7.12502
lthumb -15.113 41.9343
rfemur -6.97943 -4.78407 22.6865
rtibia 43.3036
rfoot -25.4074 -14.2606
rtoes 0.20912
lfemur -5.10264 2.32659 -20.0235
ltibia 34.2652
lfoot -15.893 -12.0555
ltoes -8.56151
24
root -0.298097 17.1585 5.6489 174.958 -12.0145 -180.35
lowerback 11.5168 -2.81808 -2.61504
upperback 4.82227 -4.51764 -0.856567
thorax -1.28127 -2.47993 1.13633
lowerneck -9.43138 -6.65364 -2.68375
upperneck -3.55875 -9.28143 10.3827
head 1.17733 -4.7457 3.43167
rclavicle -7.10655e-015 -1.07344e-014
rhumerus 70.3205 21.9836 1.12538
rradius 39.2288
rwrist -54.7934
rhand -44.9891 -7.15903
rfingers 7.12502
rthumb -17.7732 -36.3668
lclavicle -7.10655e-015 -1.07344e-014
lhumerus 68.531 -22.1904 -0.655485
lradius 32.3226
lwrist 0.0443348
lhand -42.2145 12.4656
lfingers 7.12502
lthumb -15.1018 41.8947
rfemur -7.01896 -5.45732 22.4836
rtibia 43.8649
rfoot -25.6111 -13.7076
rtoes 0.0247704
lfemur -5.34488 2.30259 -20.0197
ltibia 35.2314
lfoot -16.2665 -12.1377
ltoes -8.24675
